{
    "accessors" : [
        {
            "bufferView" : 0,
            "componentType" : 5123,
            "count" : 12,
            "max" : [
                7
            ],
            "min" : [
                0
            ],
            "type" : "SCALAR"
        },
        {
            "bufferView" : 1,
            "componentType" : 5126,
            "count" : 8,
            "max" : [
                54.6080436706543,
                51.75718307495117,
                61.7398681640625
            ],
            "min" : [
                -31.788848876953125,
                -32.8338737487793,
                -72.40032958984375
            ],
            "type" : "VEC3"
        },
        {
            "bufferView" : 2,
            "componentType" : 5126,
            "count" : 8,
            "max" : [
                0.9068102836608887,
                0.02239357866346836,
                0.42094364762306213
            ],
            "min" : [
                -0.9957926273345947,
                0.02239348739385605,
                -0.08885730803012848
            ],
            "type" : "VEC3"
        },
        {
            "bufferView" : 3,
            "componentType" : 5123,
            "count" : 12,
            "max" : [
                7
            ],
            "min" : [
                0
            ],
            "type" : "SCALAR"
        },
        {
            "bufferView" : 4,
            "componentType" : 5126,
            "count" : 8,
            "max" : [
                54.6080436706543,
                51.75718307495117,
                61.7398681640625
            ],
            "min" : [
                -31.788848876953125,
                -32.8338737487793,
                -72.40032958984375
            ],
            "type" : "VEC3"
        },
        {
            "bufferView" : 5,
            "componentType" : 5126,
            "count" : 8,
            "max" : [
                0.2500000298023224,
                0.258819043636322,
                0.9330126643180847
            ],
            "min" : [
                -0.24999991059303284,
                -0.25881898403167725,
                -0.9330126643180847
            ],
            "type" : "VEC3"
        },
        {
            "bufferView" : 6,
            "componentType" : 5123,
            "count" : 12,
            "max" : [
                7
            ],
            "min" : [
                0
            ],
            "type" : "SCALAR"
        },
        {
            "bufferView" : 7,
            "componentType" : 5126,
            "count" : 8,
            "max" : [
                54.6080436706543,
                51.75718307495117,
                61.7398681640625
            ],
            "min" : [
                -31.788848876953125,
                -32.8338737487793,
                -72.40032958984375
            ],
            "type" : "VEC3"
        },
        {
            "bufferView" : 8,
            "componentType" : 5126,
            "count" : 8,
            "max" : [
                0.020201053470373154,
                0.9113795161247253,
                0.3975430727005005
            ],
            "min" : [
                -0.1065213531255722,
                -0.9969493746757507,
                -0.07539136707782745
            ],
            "type" : "VEC3"
        }
    ],
    "asset" : {
        "generator" : "Khronos Blender glTF 2.0 exporter",
        "version" : "2.0"
    },
    "bufferViews" : [
        {
            "buffer" : 0,
            "byteLength" : 24,
            "byteOffset" : 0,
            "target" : 34963
        },
        {
            "buffer" : 0,
            "byteLength" : 96,
            "byteOffset" : 24,
            "target" : 34962
        },
        {
            "buffer" : 0,
            "byteLength" : 96,
            "byteOffset" : 120,
            "target" : 34962
        },
        {
            "buffer" : 0,
            "byteLength" : 24,
            "byteOffset" : 216,
            "target" : 34963
        },
        {
            "buffer" : 0,
            "byteLength" : 96,
            "byteOffset" : 240,
            "target" : 34962
        },
        {
            "buffer" : 0,
            "byteLength" : 96,
            "byteOffset" : 336,
            "target" : 34962
        },
        {
            "buffer" : 0,
            "byteLength" : 24,
            "byteOffset" : 432,
            "target" : 34963
        },
        {
            "buffer" : 0,
            "byteLength" : 96,
            "byteOffset" : 456,
            "target" : 34962
        },
        {
            "buffer" : 0,
            "byteLength" : 96,
            "byteOffset" : 552,
            "target" : 34962
        }
    ],
    "buffers" : [
        {
            "byteLength" : 648,
            "uri" : "A11.bin"
        }
    ],
    "materials" : [
        {
            "name" : "b",
            "pbrMetallicRoughness" : {
                "baseColorFactor" : [
                    0.013037556604110545,
                    0.04068905473782203,
                    0.640000066757203,
                    1.0
                ],
                "metallicFactor" : 0.0
            }
        },
        {
            "name" : "g",
            "pbrMetallicRoughness" : {
                "baseColorFactor" : [
                    0.0010712440285272004,
                    0.24841678512717458,
                    0.0,
                    1.0
                ],
                "metallicFactor" : 0.0
            }
        },
        {
            "name" : "y",
            "pbrMetallicRoughness" : {
                "baseColorFactor" : [
                    0.5997520536147363,
                    0.640000066757203,
                    0.0,
                    1.0
                ],
                "metallicFactor" : 0.0
            }
        }
    ],
    "meshes" : [
        {
            "name" : "mesh_block_A11.005",
            "primitives" : [
                {
                    "attributes" : {
                        "NORMAL" : 2,
                        "POSITION" : 1
                    },
                    "indices" : 0,
                    "material" : 0
                },
                {
                    "attributes" : {
                        "NORMAL" : 5,
                        "POSITION" : 4
                    },
                    "indices" : 3,
                    "material" : 2
                },
                {
                    "attributes" : {
                        "NORMAL" : 8,
                        "POSITION" : 7
                    },
                    "indices" : 6,
                    "material" : 1
                }
            ]
        }
    ],
    "nodes" : [
        {
            "mesh" : 0,
            "name" : "obj_block_A11",
            "translation" : [
                44.84174728393555,
                46.4235954284668,
                -167.35171508789062
            ]
        }
    ],
    "scene" : 0,
    "scenes" : [
        {
            "name" : "Scene",
            "nodes" : [
                0
            ]
        }
    ]
}
