{
    "accessors" : [
        {
            "bufferView" : 0,
            "componentType" : 5123,
            "count" : 12,
            "max" : [
                7
            ],
            "min" : [
                0
            ],
            "type" : "SCALAR"
        },
        {
            "bufferView" : 1,
            "componentType" : 5126,
            "count" : 8,
            "max" : [
                50.422454833984375,
                66.1297607421875,
                54.938133239746094
            ],
            "min" : [
                -23.522737503051758,
                -52.48023986816406,
                -74.38371276855469
            ],
            "type" : "VEC3"
        },
        {
            "bufferView" : 2,
            "componentType" : 5126,
            "count" : 8,
            "max" : [
                0.8896883130073547,
                0.04897506162524223,
                0.4539340138435364
            ],
            "min" : [
                -0.9974597692489624,
                0.04897492006421089,
                -0.05172566697001457
            ],
            "type" : "VEC3"
        },
        {
            "bufferView" : 3,
            "componentType" : 5123,
            "count" : 12,
            "max" : [
                7
            ],
            "min" : [
                0
            ],
            "type" : "SCALAR"
        },
        {
            "bufferView" : 4,
            "componentType" : 5126,
            "count" : 8,
            "max" : [
                50.422454833984375,
                66.1297607421875,
                54.938133239746094
            ],
            "min" : [
                -23.522737503051758,
                -52.48023986816406,
                -74.38371276855469
            ],
            "type" : "VEC3"
        },
        {
            "bufferView" : 5,
            "componentType" : 5126,
            "count" : 8,
            "max" : [
                0.18301264941692352,
                0.7071068286895752,
                0.6830126047134399
            ],
            "min" : [
                -0.18301266431808472,
                -0.70710688829422,
                -0.6830126047134399
            ],
            "type" : "VEC3"
        },
        {
            "bufferView" : 6,
            "componentType" : 5123,
            "count" : 12,
            "max" : [
                7
            ],
            "min" : [
                0
            ],
            "type" : "SCALAR"
        },
        {
            "bufferView" : 7,
            "componentType" : 5126,
            "count" : 8,
            "max" : [
                50.422454833984375,
                66.1297607421875,
                54.938133239746094
            ],
            "min" : [
                -23.522737503051758,
                -52.48023986816406,
                -74.38371276855469
            ],
            "type" : "VEC3"
        },
        {
            "bufferView" : 8,
            "componentType" : 5126,
            "count" : 8,
            "max" : [
                0.14479269087314606,
                0.5946862697601318,
                0.776563823223114
            ],
            "min" : [
                -0.20807962119579315,
                -0.8288736343383789,
                -0.540373682975769
            ],
            "type" : "VEC3"
        }
    ],
    "asset" : {
        "generator" : "Khronos Blender glTF 2.0 exporter",
        "version" : "2.0"
    },
    "bufferViews" : [
        {
            "buffer" : 0,
            "byteLength" : 24,
            "byteOffset" : 0,
            "target" : 34963
        },
        {
            "buffer" : 0,
            "byteLength" : 96,
            "byteOffset" : 24,
            "target" : 34962
        },
        {
            "buffer" : 0,
            "byteLength" : 96,
            "byteOffset" : 120,
            "target" : 34962
        },
        {
            "buffer" : 0,
            "byteLength" : 24,
            "byteOffset" : 216,
            "target" : 34963
        },
        {
            "buffer" : 0,
            "byteLength" : 96,
            "byteOffset" : 240,
            "target" : 34962
        },
        {
            "buffer" : 0,
            "byteLength" : 96,
            "byteOffset" : 336,
            "target" : 34962
        },
        {
            "buffer" : 0,
            "byteLength" : 24,
            "byteOffset" : 432,
            "target" : 34963
        },
        {
            "buffer" : 0,
            "byteLength" : 96,
            "byteOffset" : 456,
            "target" : 34962
        },
        {
            "buffer" : 0,
            "byteLength" : 96,
            "byteOffset" : 552,
            "target" : 34962
        }
    ],
    "buffers" : [
        {
            "byteLength" : 648,
            "uri" : "A12.bin"
        }
    ],
    "materials" : [
        {
            "name" : "b",
            "pbrMetallicRoughness" : {
                "baseColorFactor" : [
                    0.013037556604110545,
                    0.04068905473782203,
                    0.640000066757203,
                    1.0
                ],
                "metallicFactor" : 0.0
            }
        },
        {
            "name" : "g",
            "pbrMetallicRoughness" : {
                "baseColorFactor" : [
                    0.0010712440285272004,
                    0.24841678512717458,
                    0.0,
                    1.0
                ],
                "metallicFactor" : 0.0
            }
        },
        {
            "name" : "y",
            "pbrMetallicRoughness" : {
                "baseColorFactor" : [
                    0.5997520536147363,
                    0.640000066757203,
                    0.0,
                    1.0
                ],
                "metallicFactor" : 0.0
            }
        }
    ],
    "meshes" : [
        {
            "name" : "mesh_block_A12",
            "primitives" : [
                {
                    "attributes" : {
                        "NORMAL" : 2,
                        "POSITION" : 1
                    },
                    "indices" : 0,
                    "material" : 0
                },
                {
                    "attributes" : {
                        "NORMAL" : 5,
                        "POSITION" : 4
                    },
                    "indices" : 3,
                    "material" : 2
                },
                {
                    "attributes" : {
                        "NORMAL" : 8,
                        "POSITION" : 7
                    },
                    "indices" : 6,
                    "material" : 1
                }
            ]
        }
    ],
    "nodes" : [
        {
            "mesh" : 0,
            "name" : "obj_block_A12",
            "translation" : [
                32.86504364013672,
                126.9808349609375,
                -122.65403747558594
            ]
        }
    ],
    "scene" : 0,
    "scenes" : [
        {
            "name" : "Scene",
            "nodes" : [
                0
            ]
        }
    ]
}
